Input #0, mov,mp4,m4a,3gp,3g2,mj2, from '/home/hbattu/projects/huberman-gpt/huberman-audio/mp3/tmpbogjfxm2.mp4':
  Metadata:
    major_brand     : dash
    minor_version   : 0
    compatible_brands: iso6mp41
    creation_time   : 2023-01-21T08:54:54.000000Z
  Duration: 02:01:17.23, start: 0.000000, bitrate: 129 kb/s
    Stream #0:0(eng): Audio: aac (LC) (mp4a / 0x6134706D), 44100 Hz, stereo, fltp, 0 kb/s (default)
    Metadata:
      creation_time   : 2023-01-21T08:54:54.000000Z
      handler_name    : ISO Media file produced by Google Inc.
Stream mapping:
  Stream #0:0 -> #0:0 (aac (native) -> mp3 (libmp3lame))
Press [q] to stop, [?] for help
[graph_0_in_0_0 @ 0x5629c4cae240] tb:1/44100 samplefmt:fltp samplerate:44100 chlayout:0x3
Output #0, mp3, to '../huberman-audio/mp3/zEYE-vcVKy8.mp3':
  Metadata:
    major_brand     : dash
    minor_version   : 0
    compatible_brands: iso6mp41
    TSSE            : Lavf58.29.100
    Stream #0:0(eng): Audio: mp3 (libmp3lame), 44100 Hz, stereo, fltp, delay 1105 (default)
    Metadata:
      creation_time   : 2023-01-21T08:54:54.000000Z
      handler_name    : ISO Media file produced by Google Inc.
      encoder         : Lavc58.54.100 libmp3lame
No more output streams to write to, finishing.
size=  113708kB time=02:01:17.24 bitrate= 128.0kbits/s speed=97.2x    
[AVIOContext @ 0x5629c4b9e900] Statistics: 0 seeks, 150 writeouts
video:0kB audio:113707kB subtitle:0kB other streams:0kB global headers:0kB muxing overhead: 0.000297%
Input file #0 (/home/hbattu/projects/huberman-gpt/huberman-audio/mp3/tmpbogjfxm2.mp4):
  Input stream #0:0 (audio): 313404 packets read (116435626 bytes); 313404 frames decoded (320925696 samples); 
  Total: 313404 packets (116435626 bytes) demuxed
Output file #0 (../huberman-audio/mp3/zEYE-vcVKy8.mp3):
  Output stream #0:0 (audio): 278582 frames encoded (320925696 samples); 278583 packets muxed (116436323 bytes); 
  Total: 278583 packets (116436323 bytes) muxed
[AVIOContext @ 0x5629c4bc9400] Statistics: 2 seeks, 446 writeouts
[AVIOContext @ 0x5629c4ba7880] Statistics: 117774470 bytes read, 0 seeks
